<svg xmlns="http://www.w3.org/2000/svg" viewBox="0 0 40 46">
  <!-- cornet de frites: red-striped paper cone, fries fanning out -->
  <g stroke-linecap="round">
    <g stroke="#e8c34a" stroke-width="4">
      <line x1="20" y1="24" x2="20" y2="6"/>
      <line x1="14.5" y1="25" x2="10" y2="9"/>
      <line x1="25.5" y1="25" x2="30" y2="9"/>
      <line x1="17" y1="24" x2="14" y2="5"/>
      <line x1="23" y1="24" x2="26" y2="5"/>
    </g>
    <g stroke="#d9a349" stroke-width="4">
      <line x1="20" y1="24" x2="20" y2="9"/>
      <line x1="15.5" y1="25" x2="12.4" y2="12"/>
    </g>
  </g>
  <path d="M8 20 L32 20 L23 45 L17 45 Z" fill="#f2ead8"/>
  <g fill="#c8342a">
    <path d="M10.9 28 L29.1 28 L27.6 32.4 L12.4 32.4 Z"/>
    <path d="M14 36.8 L26 36.8 L24.5 41.2 L15.5 41.2 Z"/>
  </g>
  <path d="M8 20 L32 20 L30.5 24.4 L9.5 24.4 Z" fill="#c8342a"/>
</svg>
