<svg xmlns="http://www.w3.org/2000/svg" viewBox="0 0 40 40">
  <!-- çay: tulip-shaped Turkish tea glass on a copper saucer -->
  <g fill="none" stroke="#cfd8e2" stroke-width="1.3" opacity="0.6">
    <path d="M17.5 5 C16.5 3.2 18.3 2 17.6 0.4"/>
    <path d="M22.5 5 C21.5 3.2 23.3 2 22.6 0.4"/>
  </g>
  <ellipse cx="20" cy="32" rx="12" ry="3.2" fill="#b06a3a"/>
  <ellipse cx="20" cy="31.3" rx="8" ry="2" fill="#8a4f28"/>
  <path d="M14.6 13 C15 16.5 16.5 18 16.5 23 C16.5 27.5 23.5 27.5 23.5 23 C23.5 18 25 16.5 25.4 13 C22 14.5 18 14.5 14.6 13 Z" fill="#b5301e"/>
  <path d="M13 7 C13 15 15.5 17 15.5 23 C15.5 28.5 24.5 28.5 24.5 23 C24.5 17 27 15 27 7"
    fill="rgba(255,255,255,0.18)" stroke="#cfd8e2" stroke-width="1.5"/>
  <ellipse cx="20" cy="7" rx="7" ry="1.8" fill="none" stroke="#cfd8e2" stroke-width="1.5"/>
</svg>
